<?xml version="1.0" encoding="utf-8"?>
<svg viewBox="0.234 2.297 117.631 20.063" xmlns="http://www.w3.org/2000/svg" role="img">
  <title>Zephyrus Logo</title>
  <path d="M 6.514 8.134 L 7.464 7.034 L 3.304 7.254 L 2.434 9.414 L 1.254 9.254 L 1.624 6.104 L 9.734 6.104 L 10.114 6.954 L 4.324 15.944 L 3.224 17.044 L 8.144 16.724 L 9.044 14.244 L 10.264 14.484 L 9.894 18.024 L 1.094 18.024 L 0.594 17.174 L 6.514 8.134 ZM 14.211 16.904 L 14.211 7.334 L 12.931 7.124 L 12.931 6.134 L 21.461 6.134 L 21.661 8.824 L 20.541 8.824 L 20.021 7.244 L 16.561 7.094 L 16.561 11.404 L 18.781 11.354 L 19.041 10.044 L 20.061 10.044 L 20.061 13.914 L 19.041 13.914 L 18.781 12.534 L 16.561 12.484 L 16.561 17.004 L 20.431 16.804 L 21.361 14.764 L 22.561 15.094 L 22.141 18.024 L 12.941 18.024 L 12.941 17.064 L 14.211 16.904 ZM 26.298 16.904 L 26.298 7.334 L 25.098 7.124 L 25.098 6.134 L 27.518 6.134 C 27.745 6.134 28.092 6.124 28.558 6.104 C 29.178 6.064 29.738 6.044 30.238 6.044 C 31.345 6.044 32.222 6.177 32.868 6.444 C 33.515 6.717 33.975 7.107 34.248 7.614 C 34.522 8.121 34.658 8.764 34.658 9.544 C 34.658 10.891 34.238 11.937 33.398 12.684 C 32.558 13.431 31.398 13.804 29.918 13.804 C 29.332 13.804 28.912 13.787 28.658 13.754 L 28.658 16.904 L 30.798 17.064 L 30.798 18.024 L 25.038 18.024 L 25.038 17.064 L 26.298 16.904 Z M 28.638 12.724 C 28.885 12.777 29.302 12.804 29.888 12.804 C 30.602 12.804 31.175 12.557 31.608 12.064 C 32.042 11.571 32.258 10.747 32.258 9.594 C 32.258 8.694 32.062 8.041 31.668 7.634 C 31.282 7.221 30.688 7.014 29.888 7.014 C 29.588 7.014 29.278 7.037 28.958 7.084 C 28.812 7.104 28.705 7.114 28.638 7.114 L 28.638 12.724 ZM 38.472 16.904 L 38.472 7.334 L 37.292 7.124 L 37.292 6.134 L 42.152 6.134 L 42.152 7.124 L 40.812 7.334 L 40.812 11.354 L 45.672 11.354 L 45.672 7.334 L 44.442 7.124 L 44.442 6.134 L 49.242 6.134 L 49.242 7.124 L 48.032 7.334 L 48.032 16.904 L 49.242 17.064 L 49.242 18.024 L 44.432 18.024 L 44.432 17.064 L 45.672 16.904 L 45.672 12.564 L 40.812 12.564 L 40.812 16.904 L 42.152 17.064 L 42.152 18.024 L 37.262 18.024 L 37.262 17.064 L 38.472 16.904 ZM 55.608 16.904 L 55.608 13.304 L 52.188 7.334 L 51.268 7.124 L 51.268 6.134 L 55.978 6.134 L 55.978 7.124 L 54.838 7.334 L 56.838 11.254 L 57.288 12.364 L 57.748 11.254 L 59.588 7.334 L 58.348 7.124 L 58.348 6.134 L 62.248 6.134 L 62.248 7.124 L 61.258 7.324 L 58.068 13.284 L 58.068 16.904 L 59.818 17.064 L 59.818 18.024 L 53.908 18.024 L 53.908 17.064 L 55.608 16.904 ZM 64.161 18.024 L 64.161 17.064 L 65.431 16.904 L 65.431 7.334 L 64.231 7.114 L 64.231 6.134 L 66.551 6.134 C 66.751 6.134 66.975 6.131 67.221 6.124 C 67.468 6.111 67.655 6.097 67.781 6.084 C 68.335 6.044 68.795 6.024 69.161 6.024 C 70.255 6.024 71.135 6.137 71.801 6.364 C 72.461 6.584 72.941 6.924 73.241 7.384 C 73.535 7.844 73.681 8.447 73.681 9.194 C 73.681 9.927 73.485 10.611 73.091 11.244 C 72.698 11.871 72.128 12.301 71.381 12.534 C 71.808 12.714 72.188 13.044 72.521 13.524 C 72.848 14.004 73.198 14.631 73.571 15.404 C 73.838 15.924 74.045 16.297 74.191 16.524 C 74.331 16.757 74.471 16.891 74.611 16.924 L 75.141 17.084 L 75.141 18.024 L 72.421 18.024 C 72.248 18.024 72.068 17.851 71.881 17.504 C 71.695 17.157 71.455 16.611 71.161 15.864 C 70.808 14.991 70.501 14.307 70.241 13.814 C 69.988 13.327 69.718 13.024 69.431 12.904 L 67.781 12.904 L 67.781 16.904 L 69.251 17.064 L 69.251 18.024 L 64.161 18.024 Z M 69.251 11.924 C 69.858 11.924 70.335 11.707 70.681 11.274 C 71.021 10.834 71.191 10.177 71.191 9.304 C 71.191 8.524 71.021 7.947 70.681 7.574 C 70.348 7.201 69.771 7.014 68.951 7.014 C 68.651 7.014 68.398 7.027 68.191 7.054 C 67.985 7.081 67.848 7.094 67.781 7.094 L 67.781 11.894 C 67.908 11.914 68.218 11.924 68.711 11.924 L 69.251 11.924 ZM 82.834 18.154 C 81.214 18.154 80.008 17.747 79.214 16.934 C 78.428 16.127 78.034 14.854 78.034 13.114 L 78.034 7.334 L 76.974 7.124 L 76.974 6.134 L 81.814 6.134 L 81.814 7.124 L 80.454 7.354 L 80.454 13.324 C 80.454 15.857 81.354 17.124 83.154 17.124 C 84.041 17.124 84.698 16.797 85.124 16.144 C 85.551 15.491 85.764 14.571 85.764 13.384 L 85.764 7.354 L 84.384 7.124 L 84.384 6.134 L 88.384 6.134 L 88.384 7.124 L 87.294 7.334 L 87.294 13.254 C 87.294 14.921 86.894 16.154 86.094 16.954 C 85.288 17.754 84.201 18.154 82.834 18.154 ZM 94.909 18.204 C 94.336 18.204 93.819 18.154 93.359 18.054 C 92.899 17.961 92.386 17.834 91.819 17.674 C 91.446 17.567 91.196 17.507 91.069 17.494 L 91.219 14.534 L 92.509 14.534 L 92.859 16.604 C 92.999 16.751 93.249 16.884 93.609 17.004 C 93.963 17.117 94.369 17.174 94.829 17.174 C 95.543 17.174 96.079 17.017 96.439 16.704 C 96.799 16.391 96.979 15.951 96.979 15.384 C 96.979 15.011 96.873 14.687 96.659 14.414 C 96.446 14.141 96.153 13.897 95.779 13.684 C 95.406 13.464 94.893 13.211 94.239 12.924 C 93.353 12.517 92.619 12.034 92.039 11.474 C 91.459 10.914 91.169 10.154 91.169 9.194 C 91.169 8.594 91.323 8.051 91.629 7.564 C 91.943 7.084 92.406 6.701 93.019 6.414 C 93.633 6.134 94.379 5.994 95.259 5.994 C 95.786 5.994 96.249 6.031 96.649 6.104 C 97.049 6.177 97.483 6.277 97.949 6.404 C 98.229 6.484 98.439 6.534 98.579 6.554 L 98.479 9.354 L 97.199 9.354 L 96.859 7.384 C 96.766 7.291 96.576 7.197 96.289 7.104 C 96.003 7.011 95.683 6.964 95.329 6.964 C 94.689 6.964 94.206 7.111 93.879 7.404 C 93.553 7.697 93.389 8.091 93.389 8.584 C 93.389 8.977 93.509 9.317 93.749 9.604 C 93.989 9.897 94.279 10.141 94.619 10.334 C 94.966 10.534 95.506 10.814 96.239 11.174 C 96.839 11.461 97.353 11.744 97.779 12.024 C 98.206 12.304 98.573 12.664 98.879 13.104 C 99.186 13.544 99.339 14.064 99.339 14.664 C 99.339 15.251 99.193 15.811 98.899 16.344 C 98.606 16.877 98.126 17.321 97.459 17.674 C 96.793 18.027 95.943 18.204 94.909 18.204 Z" transform="matrix(1, 0, 0, 1, 0, 0)" style="text-transform: uppercase; white-space: pre;"/>
  <g id="_14-wind" transform="matrix(0.072239, 0, 0, 0.06303, 103.995827, 6.045794)" style="">
    <path d="m112 32a32 32 0 0 0 -64 0h16a16 16 0 1 1 16 16h-48v16h48a32.036 32.036 0 0 0 32-32z"/>
    <path d="m128 128h-64v16h64a16 16 0 1 1 -16 16h-16a32 32 0 1 0 32-32z"/>
    <path d="m152 32a40.045 40.045 0 0 0 -40 40h16a24 24 0 1 1 24 24h-64v16h64a40 40 0 0 0 0-80z"/>
    <path d="m0 96h72v16h-72z"/>
    <path d="m16 128h32v16h-32z"/>
  </g>
</svg>